# Blender 4.1.1
# www.blender.org
o CRTMonitor
v 0.012295 0.288875 0.091842
v 0.012295 0.288875 0.552503
v 0.447626 0.288875 0.091842
v 0.447626 0.288875 0.515063
v 0.012295 -0.288375 0.091842
v 0.012295 -0.288375 0.552503
v 0.447626 -0.288375 0.091842
v 0.447626 -0.288375 0.515063
v -0.270455 0.286744 0.161647
v -0.270455 0.286744 0.544972
v -0.270455 -0.286776 0.161647
v -0.270455 -0.286776 0.544972
v 0.445942 0.232622 0.140093
v 0.445942 0.232622 0.225103
v 0.463866 0.232622 0.140093
v 0.463866 0.232622 0.225103
v 0.445942 0.107748 0.140093
v 0.445942 0.107748 0.225103
v 0.463866 0.107748 0.140093
v 0.463866 0.107748 0.225103
v 0.102201 0.310026 0.285315
v 0.102201 0.310026 0.484563
v 0.385619 0.310026 0.285315
v 0.385619 0.310026 0.484563
v 0.102201 0.287025 0.285315
v 0.102201 0.287025 0.484563
v 0.385619 0.287025 0.285315
v 0.385619 0.287025 0.484563
v -0.028438 0.355041 0.064013
v 0.018838 0.307765 0.064013
v 0.018838 0.307765 0.626690
v -0.028438 0.355041 0.626690
v 0.018838 -0.307765 0.064013
v -0.028438 -0.355041 0.064013
v -0.028438 -0.355041 0.626690
v 0.018838 -0.307765 0.626690
v -0.284955 0.177521 0.161647
v -0.296411 -0.000000 0.161647
v -0.284955 -0.177521 0.161647
v -0.284955 -0.177521 0.544972
v -0.296411 0.000000 0.544972
v -0.284955 0.177521 0.544972
v -0.259856 0.355041 0.064013
v -0.259856 0.355041 0.626690
v -0.259856 -0.355041 0.626690
v -0.259856 -0.355041 0.064013
v -0.284955 -0.177521 0.064013
v -0.284955 0.177521 0.626690
v -0.284955 0.177521 0.064013
v -0.296411 -0.000000 0.064013
v -0.284955 -0.177521 0.626690
v -0.296411 0.000000 0.626690
v -0.256714 0.288151 0.161647
v -0.256714 0.288151 0.544972
v -0.256714 -0.285369 0.544972
v -0.256714 -0.285369 0.161647
v 0.234994 0.000000 0.000000
v 0.166166 0.166166 0.000000
v 0.000000 0.234994 0.000000
v -0.166166 0.166166 0.000000
v -0.234994 0.000000 0.000000
v -0.166166 -0.166166 0.000000
v 0.000000 -0.234994 0.000000
v 0.166166 -0.166166 0.000000
v 0.180617 -0.000000 0.038109
v 0.127715 0.127715 0.038109
v 0.000000 0.180617 0.038109
v -0.127715 0.127715 0.038109
v -0.180617 -0.000000 0.038109
v -0.127715 -0.127715 0.038109
v 0.000000 -0.180617 0.038109
v 0.127715 -0.127715 0.038109
v 0.166166 0.166166 0.023572
v 0.234994 0.000000 0.023572
v 0.000000 0.234994 0.023572
v -0.166166 0.166166 0.023572
v -0.234994 0.000000 0.023572
v -0.166166 -0.166166 0.023572
v 0.000000 -0.234994 0.023572
v 0.166166 -0.166166 0.023572
v 0.121178 0.121178 0.067013
v 0.171372 0.000000 0.067013
v 0.000000 0.171372 0.067013
v -0.121178 0.121178 0.067013
v -0.171372 0.000000 0.067013
v -0.121178 -0.121178 0.067013
v 0.000000 -0.171372 0.067013
v 0.121178 -0.121178 0.067013
v 0.124175 0.124175 0.100621
v 0.175610 -0.000000 0.100621
v 0.000000 0.175610 0.100621
v 0.000000 -0.175610 0.100621
v 0.124175 -0.124175 0.100621
vn -0.0000 1.0000 -0.0000
vn 1.0000 -0.0000 -0.0000
vn -0.0000 -1.0000 -0.0000
vn 0.9239 0.3827 -0.0000
vn 0.9239 -0.3827 -0.0000
vn -0.0000 -0.0000 -1.0000
vn 0.0857 -0.0000 0.9963
vn -0.0000 -0.0000 1.0000
vn -0.1019 0.9948 -0.0000
vn 0.3827 0.9239 -0.0000
vn 0.3827 -0.9239 -0.0000
vn -1.0000 -0.0000 -0.0000
vn 0.1019 -0.9948 -0.0000
vn -0.9893 0.1459 -0.0030
vn -0.9893 0.1460 0.0063
vn -0.9894 0.1452 -0.0058
vn -0.9893 -0.1459 -0.0030
vn -0.9893 -0.1460 0.0064
vn -0.9893 -0.1458 0.0040
vn -0.9950 -0.1000 -0.0022
vn -0.9894 -0.1453 -0.0058
vn -0.9893 0.1458 0.0040
vn -0.9950 0.0998 0.0023
vn -0.9950 0.1000 -0.0022
vn -0.9952 0.0981 -0.0000
vn -0.9952 -0.0980 -0.0000
vn -0.9950 -0.0998 0.0023
vn 0.7071 -0.7071 -0.0000
vn -0.7071 -0.7071 -0.0000
vn -0.7071 0.7071 -0.0000
vn 0.7071 0.7071 -0.0000
vn 0.6735 0.6735 0.3046
vn 0.9953 -0.0000 0.0971
vn 0.9525 -0.0000 0.3046
vn 0.1826 0.1826 0.9661
vn 0.2583 -0.0000 0.9661
vn -0.0000 0.2583 0.9661
vn -0.1826 0.1826 0.9661
vn -0.2583 -0.0000 0.9661
vn -0.1826 -0.1826 0.9661
vn -0.0000 -0.2583 0.9661
vn 0.1826 -0.1826 0.9661
vn 0.7038 -0.7038 0.0971
vn 0.3801 -0.9177 -0.1157
vn 0.1343 -0.9766 0.1678
vn 0.6735 -0.6735 0.3046
vn -0.0000 -0.9525 0.3046
vn -0.6735 -0.6735 0.3046
vn -0.9525 -0.0000 0.3046
vn -0.6735 0.6735 0.3046
vn -0.0000 0.9525 0.3046
vn 0.7038 0.7038 0.0971
vn 0.1342 0.9766 0.1678
vn 0.9921 -0.0000 -0.1251
vn 0.7016 -0.7016 -0.1251
vn 0.3801 0.9177 -0.1157
vn 0.7016 0.7016 -0.1251
vt 0.781908 0.976572
vt 0.578251 0.766643
vt 0.782198 0.766643
vt 0.565630 0.831966
vt 0.287273 0.628012
vt 0.565630 0.628012
vt 0.765740 0.266110
vt 0.975574 0.469524
vt 0.765740 0.470149
vt 0.439904 0.475143
vt 0.711063 0.178327
vt 0.711063 0.475144
vt 0.846999 0.760028
vt 0.637144 0.481759
vt 0.846999 0.481759
vt 0.001953 0.721206
vt 0.280658 0.510905
vt 0.280658 0.721206
vt 0.281438 0.321470
vt 0.427883 0.087530
vt 0.427883 0.258683
vt 0.048765 0.041652
vt 0.055399 0.227175
vt 0.048765 0.227133
vt 0.716949 0.001953
vt 0.436967 0.117119
vt 0.437126 0.001953
vt 0.351223 0.596609
vt 0.630186 0.481759
vt 0.630528 0.596609
vt 0.017208 0.919165
vt 0.025852 0.960143
vt 0.017208 0.960131
vt 0.048632 0.294026
vt 0.089599 0.233811
vt 0.089599 0.294026
vt 0.001953 0.919196
vt 0.010593 0.960155
vt 0.001953 0.960181
vt 0.137753 0.275168
vt 0.129112 0.214971
vt 0.137753 0.214971
vt 0.113856 0.214971
vt 0.122497 0.275169
vt 0.113856 0.275169
vt 0.381149 0.838585
vt 0.285132 0.975390
vt 0.285132 0.838718
vt 0.151418 0.184871
vt 0.162510 0.280891
vt 0.151418 0.280891
vt 0.169125 0.184871
vt 0.180216 0.280889
vt 0.169125 0.280889
vt 0.152670 0.178256
vt 0.163758 0.041631
vt 0.163758 0.178256
vt 0.170373 0.178254
vt 0.181461 0.041631
vt 0.181461 0.178254
vt 0.438046 0.141332
vt 0.716790 0.117119
vt 0.717870 0.141332
vt 0.350056 0.621396
vt 0.024743 0.352314
vt 0.258680 0.498760
vt 0.087529 0.498760
vt 0.738249 0.226793
vt 0.724636 0.278784
vt 0.731259 0.002987
vt 0.068674 0.226408
vt 0.062014 0.041639
vt 0.068674 0.041655
vt 0.227131 0.035015
vt 0.001970 0.001953
vt 0.274176 0.001953
vt 0.227131 0.312652
vt 0.001970 0.345699
vt 0.041691 0.312652
vt 0.274620 0.259762
vt 0.274176 0.345699
vt 0.041691 0.035015
vt 0.002415 0.087889
vt 0.274620 0.087889
vt 0.227388 0.087889
vt 0.274823 0.173826
vt 0.227591 0.173826
vt 0.227388 0.259762
vt 0.002415 0.259762
vt 0.041947 0.259762
vt 0.002617 0.173826
vt 0.042150 0.173826
vt 0.041947 0.087889
vt -0.000000 1.000000
vt 1.000000 0.000000
vt 1.000000 1.000000
vt 0.757018 0.278734
vt 0.750394 0.002941
vt 0.764007 0.054931
vt 0.144229 0.208333
vt 0.134231 0.123025
vt 0.146054 0.123060
vt 0.107291 0.208359
vt 0.096736 0.124995
vt 0.108553 0.124995
vt 0.076923 0.041652
vt 0.087108 0.123995
vt 0.075290 0.124011
vt 0.125764 0.208356
vt 0.115170 0.124993
vt 0.126988 0.124993
vt 0.113946 0.041631
vt 0.125764 0.041631
vt 0.132406 0.041641
vt 0.144229 0.041676
vt 0.095473 0.041631
vt 0.107291 0.041631
vt 0.088741 0.208366
vt 0.076923 0.208382
vt 0.419544 0.968849
vt 0.405688 0.904121
vt 0.420494 0.904121
vt 0.964963 0.142754
vt 0.989717 0.064508
vt 0.989717 0.152971
vt 0.927165 0.215523
vt 0.916885 0.190832
vt 0.838703 0.215522
vt 0.848894 0.190831
vt 0.776152 0.152968
vt 0.800816 0.142752
vt 0.800816 0.074759
vt 0.776152 0.064505
vt 0.848894 0.026681
vt 0.838704 0.001953
vt 0.916885 0.026683
vt 0.927165 0.001955
vt 0.964963 0.074762
vt 0.480280 0.842114
vt 0.497129 0.904515
vt 0.480280 0.904705
vt 0.419544 0.839392
vt 0.404786 0.842705
vt 0.465453 0.905241
vt 0.482897 0.964385
vt 0.468211 0.968141
vt 0.203936 0.107491
vt 0.188117 0.045771
vt 0.202951 0.042442
vt 0.458838 0.904730
vt 0.444003 0.842248
vt 0.458838 0.839302
vt 0.465453 0.839274
vt 0.188117 0.169211
vt 0.189052 0.107491
vt 0.456336 0.968549
vt 0.444003 0.904326
vt 0.404786 0.965536
vt 0.388741 0.904121
vt 0.387818 0.841187
vt 0.427110 0.904085
vt 0.427110 0.840472
vt 0.850038 0.975960
vt 0.788731 0.827951
vt 0.936740 0.766643
vt 0.559919 0.976572
vt 0.287273 0.831965
vt 0.975574 0.247436
vt 0.439904 0.178327
vt 0.637144 0.760028
vt 0.001953 0.510905
vt 0.415784 0.344260
vt 0.304228 0.344260
vt 0.281438 0.024743
vt 0.304228 0.001953
vt 0.415784 0.001953
vt 0.433405 0.173106
vt 0.055399 0.041693
vt 0.350881 0.481759
vt 0.025852 0.919177
vt 0.048632 0.233811
vt 0.010593 0.919171
vt 0.129112 0.275168
vt 0.122497 0.214971
vt 0.381149 0.975258
vt 0.162510 0.184871
vt 0.180216 0.184871
vt 0.152670 0.041631
vt 0.170373 0.041631
vt 0.629362 0.621396
vt 0.001953 0.486661
vt 0.001953 0.375104
vt 0.321466 0.352314
vt 0.344256 0.375104
vt 0.344256 0.486661
vt 0.173104 0.504283
vt 0.738249 0.055640
vt 0.743771 0.141217
vt 0.731259 0.279462
vt 0.724636 0.002309
vt 0.062014 0.226392
vt 0.000000 0.000000
vt 0.769530 0.140506
vt 0.764007 0.226082
vt 0.750394 0.279412
vt 0.757018 0.002263
vt 0.132406 0.208298
vt 0.095473 0.208359
vt 0.088741 0.041635
vt 0.113946 0.208356
vt 0.497129 0.840377
vt 0.202951 0.172541
vt 0.441630 0.964879
vt 0.387818 0.967055
vt 0.998047 0.827951
vt 0.998047 0.914652
vt 0.936740 0.975960
vt 0.788731 0.914652
vt 0.850038 0.766643
s 1
f 1/1/1 4/2/1 3/3/1
f 4/4/2 7/5/2 3/6/2
f 8/7/3 5/8/3 7/9/3
f 31/10/4 33/11/5 30/12/4
f 7/13/6 1/14/6 3/15/6
f 4/16/7 6/17/7 8/18/7
f 36/19/8 48/20/8 51/21/8
f 12/22/9 56/23/9 11/24/9
f 44/25/1 29/26/10 43/27/1
f 35/28/11 46/29/3 34/30/11
f 14/31/1 15/32/1 13/33/1
f 16/34/2 19/35/2 15/36/2
f 20/37/3 17/38/3 19/39/3
f 19/40/6 13/41/6 15/42/6
f 16/43/8 18/44/8 20/45/8
f 22/46/1 23/47/1 21/48/1
f 24/49/2 27/50/2 23/51/2
f 26/52/12 21/53/12 25/54/12
f 27/55/6 21/56/6 23/57/6
f 24/58/8 26/59/8 28/60/8
f 30/61/4 32/62/10 31/63/4
f 34/30/11 36/64/5 35/28/11
f 30/65/6 47/66/6 49/67/6
f 39/68/8 56/69/8 9/70/8
f 9/71/13 54/72/13 10/73/13
f 9/74/14 44/75/15 43/76/16
f 11/77/17 45/78/18 12/79/19
f 11/77/17 47/80/20 46/81/21
f 10/82/22 48/83/23 44/75/15
f 9/74/14 49/84/24 37/85/25
f 37/85/25 50/86/12 38/87/12
f 38/87/12 47/80/20 39/88/26
f 12/79/19 51/89/27 40/90/26
f 40/90/26 52/91/12 41/92/12
f 41/92/12 48/83/23 42/93/25
f 54/94/12 56/95/12 55/96/12
f 10/97/6 55/98/6 40/99/6
f 64/100/28 79/101/3 63/102/3
f 62/103/29 77/104/12 61/105/12
f 60/106/30 75/107/1 59/108/1
f 58/109/31 74/110/2 57/111/2
f 57/111/2 80/112/28 64/113/28
f 63/102/3 78/114/29 62/115/29
f 61/105/12 76/116/30 60/117/30
f 59/108/1 73/118/31 58/119/31
f 66/120/32 82/121/33 65/122/34
f 66/123/35 74/124/36 73/125/35
f 66/123/35 75/126/37 67/127/37
f 67/127/37 76/128/38 68/129/38
f 68/129/38 77/130/39 69/131/39
f 70/132/40 77/130/39 78/133/40
f 71/134/41 78/133/40 79/135/41
f 72/136/42 79/135/41 80/137/42
f 65/138/36 80/137/42 74/124/36
f 88/139/43 92/140/44 87/141/45
f 72/142/46 82/121/33 88/143/43
f 71/144/47 86/145/48 70/146/48
f 69/147/49 84/148/50 68/149/50
f 67/150/51 81/151/52 66/152/32
f 72/153/46 87/141/45 71/144/47
f 69/147/49 86/154/48 85/155/49
f 68/156/50 83/157/53 67/150/51
f 81/158/52 90/159/54 82/121/33
f 88/143/43 90/159/54 93/160/55
f 81/151/52 91/161/56 89/162/57
f 63/163/6 61/164/6 59/165/6
f 1/1/1 2/166/1 4/2/1
f 4/4/2 8/167/2 7/5/2
f 8/7/3 6/168/3 5/8/3
f 31/10/4 36/169/5 33/11/5
f 7/13/6 5/170/6 1/14/6
f 4/16/7 2/171/7 6/17/7
f 45/172/8 35/173/8 36/19/8
f 36/19/8 31/174/8 32/175/8
f 32/175/8 44/176/8 48/20/8
f 48/20/8 52/177/8 51/21/8
f 51/21/8 45/172/8 36/19/8
f 36/19/8 32/175/8 48/20/8
f 12/22/9 55/178/9 56/23/9
f 44/25/1 32/62/10 29/26/10
f 35/28/11 45/179/3 46/29/3
f 14/31/1 16/180/1 15/32/1
f 16/34/2 20/181/2 19/35/2
f 20/37/3 18/182/3 17/38/3
f 19/40/6 17/183/6 13/41/6
f 16/43/8 14/184/8 18/44/8
f 22/46/1 24/185/1 23/47/1
f 24/49/2 28/186/2 27/50/2
f 26/52/12 22/187/12 21/53/12
f 27/55/6 25/188/6 21/56/6
f 24/58/8 22/189/8 26/59/8
f 30/61/4 29/26/10 32/62/10
f 34/30/11 33/190/5 36/64/5
f 43/191/6 29/192/6 30/65/6
f 30/65/6 33/193/6 34/194/6
f 34/194/6 46/195/6 47/66/6
f 47/66/6 50/196/6 49/67/6
f 49/67/6 43/191/6 30/65/6
f 30/65/6 34/194/6 47/66/6
f 37/197/8 38/198/8 39/68/8
f 39/68/8 11/199/8 56/69/8
f 56/69/8 53/200/8 9/70/8
f 9/70/8 37/197/8 39/68/8
f 9/71/13 53/201/13 54/72/13
f 9/74/14 10/82/22 44/75/15
f 11/77/17 46/81/21 45/78/18
f 11/77/17 39/88/26 47/80/20
f 10/82/22 42/93/25 48/83/23
f 9/74/14 43/76/16 49/84/24
f 37/85/25 49/84/24 50/86/12
f 38/87/12 50/86/12 47/80/20
f 12/79/19 45/78/18 51/89/27
f 40/90/26 51/89/27 52/91/12
f 41/92/12 52/91/12 48/83/23
f 54/94/12 53/202/12 56/95/12
f 41/203/6 42/204/6 10/97/6
f 10/97/6 54/205/6 55/98/6
f 55/98/6 12/206/6 40/99/6
f 40/99/6 41/203/6 10/97/6
f 64/100/28 80/207/28 79/101/3
f 62/103/29 78/208/29 77/104/12
f 60/106/30 76/209/30 75/107/1
f 58/109/31 73/210/31 74/110/2
f 57/111/2 74/110/2 80/112/28
f 63/102/3 79/101/3 78/114/29
f 61/105/12 77/104/12 76/116/30
f 59/108/1 75/107/1 73/118/31
f 66/120/32 81/158/52 82/121/33
f 66/123/35 65/138/36 74/124/36
f 66/123/35 73/125/35 75/126/37
f 67/127/37 75/126/37 76/128/38
f 68/129/38 76/128/38 77/130/39
f 70/132/40 69/131/39 77/130/39
f 71/134/41 70/132/40 78/133/40
f 72/136/42 71/134/41 79/135/41
f 65/138/36 72/136/42 80/137/42
f 88/139/43 93/211/55 92/140/44
f 72/142/46 65/122/34 82/121/33
f 71/144/47 87/141/45 86/145/48
f 69/147/49 85/155/49 84/148/50
f 67/150/51 83/157/53 81/151/52
f 72/153/46 88/139/43 87/141/45
f 69/147/49 70/212/48 86/154/48
f 68/156/50 84/213/50 83/157/53
f 81/158/52 89/214/57 90/159/54
f 88/143/43 82/121/33 90/159/54
f 81/151/52 83/157/53 91/161/56
f 59/165/6 58/215/6 57/216/6
f 57/216/6 64/217/6 63/163/6
f 63/163/6 62/218/6 61/164/6
f 61/164/6 60/219/6 59/165/6
f 59/165/6 57/216/6 63/163/6
