# Blender 4.2.0
# www.blender.org
o TripodLampBase.003
v 1.637628 1.286158 -21.480850
v 1.604878 1.286158 -21.480850
v 1.604878 1.294952 -21.512398
v 1.637628 1.294952 -21.512398
v 1.592069 1.286158 -21.458664
v 1.608444 1.286158 -21.430304
v 1.581124 1.294952 -21.414530
v 1.564749 1.294952 -21.442892
v 1.634062 1.286158 -21.430304
v 1.650437 1.286158 -21.458664
v 1.677757 1.294952 -21.442892
v 1.661382 1.294952 -21.414530
v 1.777516 0.619910 -21.340227
v 1.800172 0.619910 -21.379467
v 1.838167 0.631944 -21.357531
v 1.815511 0.631944 -21.318291
v 1.442334 0.619910 -21.379467
v 1.464990 0.619910 -21.340227
v 1.426995 0.631944 -21.318291
v 1.404339 0.631944 -21.357531
v 1.643909 0.619910 -21.650124
v 1.598597 0.619910 -21.650124
v 1.598597 0.631944 -21.693996
v 1.643909 0.631944 -21.693996
vn -0.0000 0.9633 0.2685
vn 0.2326 0.9633 -0.1343
vn -0.2326 0.9633 -0.1343
vn -0.8394 -0.2462 -0.4846
vn 0.4979 0.0088 -0.8672
vn 0.8353 0.2642 0.4822
vn -0.5021 0.0088 0.8648
vn 0.8394 -0.2462 -0.4846
vn 0.5021 0.0088 0.8648
vn -0.8353 0.2642 0.4822
vn -0.4979 0.0088 -0.8672
vn -0.0000 -0.2462 0.9692
vn -1.0000 0.0088 0.0024
vn -1.0000 0.0088 0.0025
vn -0.0000 0.2642 -0.9645
vn 1.0000 0.0088 0.0025
vn 1.0000 0.0088 0.0024
vn 0.2291 -0.9644 0.1323
vn -0.2291 -0.9644 0.1323
vn -0.0000 -0.9644 -0.2645
vn 0.2325 0.9633 -0.1343
vn -0.2325 0.9633 -0.1343
vt 0.226499 0.132106
vt 0.178858 0.177998
vt 0.178858 0.132106
vt 0.083574 0.177998
vt 0.131216 0.132106
vt 0.131216 0.177998
vt 0.885826 0.885826
vt -0.114174 0.829048
vt 0.885826 0.819910
vt 0.866629 0.625803
vt -0.112007 0.672380
vt -0.114174 0.625803
vt 0.878972 0.498522
vt -0.113150 0.452526
vt 0.880388 0.434882
vt 0.866629 0.819910
vt -0.112007 0.773333
vt 0.869369 0.755207
vt 0.849442 0.267369
vt -0.114174 0.235072
vt 0.834112 0.222683
vt 0.834390 0.267369
vt -0.103296 0.316019
vt -0.114174 0.280999
vt 0.878972 0.625802
vt -0.113150 0.579806
vt 0.880389 0.562162
vt 0.813497 0.434882
vt -0.105495 0.375451
vt 0.825297 0.375450
vt 0.849442 0.177998
vt -0.114174 0.210295
vt -0.103094 0.177998
vt 0.813496 0.316019
vt -0.105494 0.375450
vt -0.114174 0.332672
vt 0.878972 0.498522
vt -0.113150 0.544519
vt -0.114174 0.498522
vt -0.112007 0.708630
vt 0.866628 0.755207
vt -0.114174 0.755207
vt -0.048258 0.177998
vt -0.114174 0.114174
vt -0.048258 0.114174
vt -0.048258 0.177998
vt 0.017658 0.114174
vt 0.017658 0.177998
vt 0.017658 0.177998
vt 0.083574 0.114174
vt 0.083574 0.177998
vt 0.226499 0.177998
vt 0.083574 0.132106
vt -0.114174 0.876689
vt 0.869369 0.690505
vt -0.114174 0.498522
vt -0.114174 0.819910
vt -0.103094 0.267369
vt 0.849240 0.316019
vt -0.114174 0.625803
vt -0.114174 0.418229
vt 0.834112 0.222683
vt 0.825297 0.375450
vt 0.880389 0.562162
vt 0.869368 0.690505
vt -0.114174 0.177998
vt -0.048258 0.114174
s 1
f 3/1/1 1/2/1 4/3/1
f 7/4/2 5/5/2 8/6/2
f 11/3/3 9/6/3 12/5/3
f 13/7/4 10/8/4 14/9/4
f 15/10/5 10/11/5 11/12/5
f 15/13/6 12/14/6 16/15/6
f 16/16/7 9/17/7 13/18/7
f 17/19/8 6/20/8 18/21/8
f 19/22/9 6/23/9 7/24/9
f 19/25/10 8/26/10 20/27/10
f 20/28/11 5/29/11 17/30/11
f 22/31/12 1/32/12 2/33/12
f 23/34/13 2/35/14 3/36/14
f 24/37/15 3/38/15 4/39/15
f 1/40/16 24/41/17 4/42/16
f 15/43/18 13/44/18 14/45/18
f 18/46/19 20/47/19 17/48/19
f 22/49/20 24/50/20 21/51/20
f 3/1/1 2/52/1 1/2/1
f 7/4/2 6/53/21 5/5/2
f 11/3/3 10/2/22 9/6/3
f 13/7/4 9/54/4 10/8/4
f 15/10/5 14/55/5 10/11/5
f 15/13/6 11/56/6 12/14/6
f 16/16/7 12/57/7 9/17/7
f 17/19/8 5/58/8 6/20/8
f 19/22/9 18/59/9 6/23/9
f 19/25/10 7/60/10 8/26/10
f 20/28/11 8/61/11 5/29/11
f 22/31/12 21/62/12 1/32/12
f 23/34/13 22/63/13 2/35/14
f 24/37/15 23/64/15 3/38/15
f 1/40/16 21/65/17 24/41/17
f 15/43/18 16/66/18 13/44/18
f 18/46/19 19/67/19 20/47/19
f 22/49/20 23/47/20 24/50/20
o TripodLampBase.004
v 1.761788 1.286158 -23.640160
v 1.744897 1.286158 -23.668217
v 1.771924 1.294952 -23.684488
v 1.788815 1.294952 -23.656429
v 1.719284 1.286158 -23.667747
v 1.703431 1.286158 -23.639091
v 1.675827 1.294952 -23.654362
v 1.691679 1.294952 -23.683018
v 1.716644 1.286158 -23.617144
v 1.749388 1.286158 -23.617743
v 1.749965 1.294952 -23.586201
v 1.717221 1.294952 -23.585602
v 1.713463 0.619910 -23.447784
v 1.758767 0.619910 -23.448614
v 1.759570 0.631944 -23.404747
v 1.714266 0.631944 -23.403917
v 1.574205 0.619910 -23.755182
v 1.552271 0.619910 -23.715534
v 1.513880 0.631944 -23.736771
v 1.535814 0.631944 -23.776421
v 1.910049 0.619910 -23.722084
v 1.886678 0.619910 -23.760904
v 1.924266 0.631944 -23.783533
v 1.947636 0.631944 -23.744713
vn -0.2301 0.9633 0.1385
vn 0.2350 0.9633 0.1300
vn -0.0049 0.9633 -0.2685
vn -0.0177 -0.2462 -0.9690
vn 0.9997 0.0088 -0.0207
vn 0.9997 0.0088 -0.0208
vn 0.0177 0.2642 0.9643
vn -0.9998 0.0088 0.0159
vn 0.8481 -0.2462 0.4692
vn -0.4819 0.0088 0.8762
vn -0.8439 0.2642 -0.4669
vn 0.4862 0.0088 -0.8738
vn -0.8303 -0.2462 0.4999
vn -0.5178 0.0088 -0.8554
vn -0.5179 0.0088 -0.8554
vn 0.8263 0.2642 -0.4974
vn 0.5136 0.0088 0.8580
vn 0.5137 0.0088 0.8579
vn 0.0048 -0.9644 0.2645
vn -0.2315 -0.9644 -0.1280
vn 0.2266 -0.9644 -0.1364
vt 0.226499 0.132106
vt 0.178858 0.177998
vt 0.178858 0.132106
vt 0.083574 0.177998
vt 0.131216 0.132106
vt 0.131216 0.177998
vt 0.885826 0.885826
vt -0.114174 0.829048
vt 0.885826 0.819910
vt 0.866629 0.625803
vt -0.112007 0.672380
vt -0.114174 0.625803
vt 0.878972 0.498522
vt -0.113150 0.452526
vt 0.880388 0.434882
vt 0.866629 0.819910
vt -0.112007 0.773333
vt 0.869369 0.755207
vt 0.849442 0.267369
vt -0.114174 0.235072
vt 0.834112 0.222683
vt 0.834390 0.267369
vt -0.103296 0.316019
vt -0.114174 0.280999
vt 0.878972 0.625802
vt -0.113150 0.579806
vt 0.880389 0.562162
vt 0.813497 0.434882
vt -0.105495 0.375451
vt 0.825297 0.375450
vt 0.849442 0.177998
vt -0.114174 0.210295
vt -0.103094 0.177998
vt 0.813496 0.316019
vt -0.105494 0.375450
vt -0.114174 0.332672
vt 0.878972 0.498522
vt -0.113150 0.544519
vt -0.114174 0.498522
vt -0.112007 0.708630
vt 0.866628 0.755207
vt -0.114174 0.755207
vt -0.048258 0.177998
vt -0.114174 0.114174
vt -0.048258 0.114174
vt -0.048258 0.177998
vt 0.017658 0.114174
vt 0.017658 0.177998
vt 0.017658 0.177998
vt 0.083574 0.114174
vt 0.083574 0.177998
vt 0.226499 0.177998
vt 0.083574 0.132106
vt -0.114174 0.876689
vt 0.869369 0.690505
vt -0.114174 0.498522
vt -0.114174 0.819910
vt -0.103094 0.267369
vt 0.849240 0.316019
vt -0.114174 0.625803
vt -0.114174 0.418229
vt 0.834112 0.222683
vt 0.825297 0.375450
vt 0.880389 0.562162
vt 0.869368 0.690505
vt -0.114174 0.177998
vt -0.048258 0.114174
s 1
f 27/68/23 25/69/23 28/70/23
f 31/71/24 29/72/24 32/73/24
f 35/70/25 33/73/25 36/72/25
f 37/74/26 34/75/26 38/76/26
f 39/77/27 34/78/28 35/79/28
f 39/80/29 36/81/29 40/82/29
f 40/83/30 33/84/30 37/85/30
f 41/86/31 30/87/31 42/88/31
f 43/89/32 30/90/32 31/91/32
f 43/92/33 32/93/33 44/94/33
f 44/95/34 29/96/34 41/97/34
f 46/98/35 25/99/35 26/100/35
f 47/101/36 26/102/36 27/103/37
f 48/104/38 27/105/38 28/106/38
f 25/107/39 48/108/40 28/109/39
f 39/110/41 37/111/41 38/112/41
f 42/113/42 44/114/42 41/115/42
f 46/116/43 48/117/43 45/118/43
f 27/68/23 26/119/23 25/69/23
f 31/71/24 30/120/24 29/72/24
f 35/70/25 34/69/25 33/73/25
f 37/74/26 33/121/26 34/75/26
f 39/77/27 38/122/27 34/78/28
f 39/80/29 35/123/29 36/81/29
f 40/83/30 36/124/30 33/84/30
f 41/86/31 29/125/31 30/87/31
f 43/89/32 42/126/32 30/90/32
f 43/92/33 31/127/33 32/93/33
f 44/95/34 32/128/34 29/96/34
f 46/98/35 45/129/35 25/99/35
f 47/101/36 46/130/36 26/102/36
f 48/104/38 47/131/38 27/105/38
f 25/107/39 45/132/40 48/108/40
f 39/110/41 40/133/41 37/111/41
f 42/113/42 43/134/42 44/114/42
f 46/116/43 47/114/43 48/117/43
o TripodLampBase.005
v 1.515579 1.286158 -22.448568
v 1.483096 1.286158 -22.452740
v 1.487113 1.294952 -22.484030
v 1.519596 1.294952 -22.479858
v 1.467566 1.286158 -22.432365
v 1.480196 1.286158 -22.402149
v 1.451090 1.294952 -22.389982
v 1.438460 1.294952 -22.420198
v 1.505605 1.286158 -22.398888
v 1.525458 1.286158 -22.424932
v 1.550547 1.294952 -22.405809
v 1.530694 1.294952 -22.379763
v 1.636422 0.619910 -22.291277
v 1.663890 0.619910 -22.327314
v 1.698783 0.631944 -22.300718
v 1.671314 0.631944 -22.264681
v 1.308965 0.619910 -22.372879
v 1.326440 0.619910 -22.331074
v 1.285960 0.631944 -22.314154
v 1.268486 0.631944 -22.355961
v 1.543363 0.619910 -22.615664
v 1.498420 0.619910 -22.621433
v 1.504007 0.631944 -22.664951
v 1.548950 0.631944 -22.659180
vn -0.0342 0.9633 0.2663
vn 0.2478 0.9633 -0.1036
vn -0.2136 0.9633 -0.1628
vn -0.7708 -0.2462 -0.5875
vn 0.6043 0.0088 -0.7967
vn 0.6042 0.0088 -0.7968
vn 0.7671 0.2642 0.5847
vn -0.6081 0.0088 0.7938
vn 0.8942 -0.2462 -0.3738
vn 0.3879 0.0088 0.9217
vn -0.8899 0.2642 0.3720
vn -0.3834 0.0088 -0.9235
vn -0.3834 0.0088 -0.9236
vn -0.1234 -0.2462 0.9613
vn -0.9921 0.0088 -0.1249
vn 0.1228 0.2642 -0.9566
vn 0.9915 0.0088 0.1298
vn 0.9915 0.0088 0.1297
vn 0.2104 -0.9644 0.1604
vn -0.2441 -0.9644 0.1020
vn 0.0337 -0.9644 -0.2624
vt 0.226499 0.132106
vt 0.178858 0.177998
vt 0.178858 0.132106
vt 0.083574 0.177998
vt 0.131216 0.132106
vt 0.131216 0.177998
vt 0.885826 0.885826
vt -0.114174 0.829048
vt 0.885826 0.819910
vt 0.866629 0.625803
vt -0.112007 0.672380
vt -0.114174 0.625803
vt 0.878972 0.498522
vt -0.113150 0.452526
vt 0.880388 0.434882
vt 0.866629 0.819910
vt -0.112007 0.773333
vt 0.869369 0.755207
vt 0.849442 0.267369
vt -0.114174 0.235072
vt 0.834112 0.222683
vt 0.834390 0.267369
vt -0.103296 0.316019
vt -0.114174 0.280999
vt 0.878972 0.625802
vt -0.113150 0.579806
vt 0.880389 0.562162
vt 0.813497 0.434882
vt -0.105495 0.375451
vt 0.825297 0.375450
vt 0.849442 0.177998
vt -0.114174 0.210295
vt -0.103094 0.177998
vt 0.813496 0.316019
vt -0.105494 0.375450
vt -0.114174 0.332672
vt 0.878972 0.498522
vt -0.113150 0.544519
vt -0.114174 0.498522
vt -0.112007 0.708630
vt 0.866628 0.755207
vt -0.114174 0.755207
vt -0.048258 0.177998
vt -0.114174 0.114174
vt -0.048258 0.114174
vt -0.048258 0.177998
vt 0.017658 0.114174
vt 0.017658 0.177998
vt 0.017658 0.177998
vt 0.083574 0.114174
vt 0.083574 0.177998
vt 0.226499 0.177998
vt 0.083574 0.132106
vt -0.114174 0.876689
vt 0.869369 0.690505
vt -0.114174 0.498522
vt -0.114174 0.819910
vt -0.103094 0.267369
vt 0.849240 0.316019
vt -0.114174 0.625803
vt -0.114174 0.418229
vt 0.834112 0.222683
vt 0.825297 0.375450
vt 0.880389 0.562162
vt 0.869368 0.690505
vt -0.114174 0.177998
vt -0.048258 0.114174
s 1
f 51/135/44 49/136/44 52/137/44
f 55/138/45 53/139/45 56/140/45
f 59/137/46 57/140/46 60/139/46
f 61/141/47 58/142/47 62/143/47
f 63/144/48 58/145/49 59/146/49
f 63/147/50 60/148/50 64/149/50
f 64/150/51 57/151/51 61/152/51
f 65/153/52 54/154/52 66/155/52
f 67/156/53 54/157/53 55/158/53
f 67/159/54 56/160/54 68/161/54
f 68/162/55 53/163/56 65/164/55
f 70/165/57 49/166/57 50/167/57
f 71/168/58 50/169/58 51/170/58
f 72/171/59 51/172/59 52/173/59
f 49/174/60 72/175/61 52/176/60
f 63/177/62 61/178/62 62/179/62
f 66/180/63 68/181/63 65/182/63
f 70/183/64 72/184/64 69/185/64
f 51/135/44 50/186/44 49/136/44
f 55/138/45 54/187/45 53/139/45
f 59/137/46 58/136/46 57/140/46
f 61/141/47 57/188/47 58/142/47
f 63/144/48 62/189/48 58/145/49
f 63/147/50 59/190/50 60/148/50
f 64/150/51 60/191/51 57/151/51
f 65/153/52 53/192/52 54/154/52
f 67/156/53 66/193/53 54/157/53
f 67/159/54 55/194/54 56/160/54
f 68/162/55 56/195/56 53/163/56
f 70/165/57 69/196/57 49/166/57
f 71/168/58 70/197/58 50/169/58
f 72/171/59 71/198/59 51/172/59
f 49/174/60 69/199/61 72/175/61
f 63/177/62 64/200/62 61/178/62
f 66/180/63 67/201/63 68/181/63
f 70/183/64 71/181/64 72/184/64
