# Blender 4.2.0
# www.blender.org
o Vert
v 3.950000 0.000000 -24.950001
v 3.850000 0.000000 -24.950001
v 3.950000 0.000000 -20.150000
v 3.850000 0.000000 -20.150000
v 3.950000 3.600000 -24.950001
v 3.850000 3.600000 -24.950001
v 3.950000 3.600000 -20.150000
v 3.850000 3.600000 -20.150000
v 3.950000 0.000000 -20.100000
v 3.850000 0.000000 -20.100000
v 3.950000 0.000000 -18.500000
v 3.850000 0.000000 -18.500000
v 3.950000 3.600000 -20.100000
v 3.850000 3.600000 -20.100000
v 3.950000 3.600000 -18.500000
v 3.850000 3.600000 -18.500000
v 2.300000 0.000000 -24.950001
v 2.300000 0.000000 -24.849998
v 3.500000 0.000000 -24.950001
v 3.500000 0.000000 -24.850000
v 2.300000 3.600000 -24.950001
v 2.300000 3.600000 -24.849998
v 3.500000 3.600000 -24.950001
v 3.500000 3.600000 -24.850000
v -0.950000 0.000000 -29.950001
v -0.950000 0.000000 -29.849998
v 0.850000 0.000000 -29.950001
v 0.850000 0.000000 -29.850000
v -0.950000 3.600000 -29.950001
v -0.950000 3.600000 -29.849998
v 0.850000 3.600000 -29.950001
v 0.850000 3.600000 -29.850000
v 4.200000 0.000000 -17.950001
v 4.200000 0.000000 -17.849998
v 7.400000 0.000000 -17.950001
v 7.400000 0.000000 -17.850000
v 4.200000 3.600000 -17.950001
v 4.200000 3.600000 -17.849998
v 7.400000 3.600000 -17.950001
v 7.400000 3.600000 -17.850000
v 6.650000 0.000000 -21.100000
v 6.550000 0.000000 -21.100000
v 6.650000 0.000000 -18.700001
v 6.550000 0.000000 -18.700001
v 6.650000 3.600000 -21.100000
v 6.550000 3.600000 -21.100000
v 6.650000 3.600000 -18.700001
v 6.550000 3.600000 -18.700001
v 6.650000 0.000000 -23.549999
v 6.550000 0.000000 -23.549999
v 6.650000 0.000000 -21.150000
v 6.550000 0.000000 -21.150000
v 6.650000 3.600000 -23.549999
v 6.550000 3.600000 -23.549999
v 6.650000 3.600000 -21.150000
v 6.550000 3.600000 -21.150000
v 6.650000 0.000000 -28.000000
v 6.550000 0.000000 -28.000000
v 6.650000 0.000000 -24.800001
v 6.550000 0.000000 -24.800001
v 6.650000 3.600000 -28.000000
v 6.550000 3.600000 -28.000000
v 6.650000 3.600000 -24.800001
v 6.550000 3.600000 -24.800001
v 6.650000 0.000000 -29.850000
v 6.550000 0.000000 -29.850000
v 6.650000 0.000000 -28.050001
v 6.550000 0.000000 -28.050001
v 6.650000 3.600000 -29.850000
v 6.550000 3.600000 -29.850000
v 6.650000 3.600000 -28.050001
v 6.550000 3.600000 -28.050001
v 2.400000 0.000000 -25.650000
v 2.400000 0.000000 -25.549999
v 4.800000 0.000000 -25.650000
v 4.800000 0.000000 -25.549999
v 2.400000 3.600000 -25.650000
v 2.400000 3.600000 -25.549999
v 4.800000 3.600000 -25.650000
v 4.800000 3.600000 -25.549999
v 4.950000 0.000000 -25.650000
v 4.950000 0.000000 -25.549999
v 5.950000 0.000000 -25.650000
v 5.950000 0.000000 -25.549999
v 4.950000 3.600000 -25.650000
v 4.950000 3.600000 -25.549999
v 5.950000 3.600000 -25.650000
v 5.950000 3.600000 -25.549999
v 5.950000 0.000000 -28.900002
v 5.850000 0.000000 -28.900002
v 5.950000 0.000000 -27.100000
v 5.850000 0.000000 -27.100000
v 5.950000 3.600000 -28.900002
v 5.850000 3.600000 -28.900002
v 5.950000 3.600000 -27.100000
v 5.850000 3.600000 -27.100000
v 5.950000 0.000000 -29.950001
v 5.850000 0.000000 -29.950001
v 5.950000 0.000000 -28.950001
v 5.850000 0.000000 -28.950001
v 5.950000 3.600000 -29.950001
v 5.850000 3.600000 -29.950001
v 5.950000 3.600000 -28.950001
v 5.850000 3.600000 -28.950001
v 1.150000 0.000000 -34.900002
v 1.050000 0.000000 -34.900002
v 1.150000 0.000000 -31.700001
v 1.050000 0.000000 -31.700001
v 1.150000 3.600000 -34.900002
v 1.050000 3.600000 -34.900002
v 1.150000 3.600000 -31.700001
v 1.050000 3.600000 -31.700001
v 1.150000 0.000000 -31.650002
v 1.050000 0.000000 -31.650002
v 1.150000 0.000000 -30.050001
v 1.050000 0.000000 -30.050001
v 1.150000 3.600000 -31.650002
v 1.050000 3.600000 -31.650002
v 1.150000 3.600000 -30.050001
v 1.050000 3.600000 -30.050001
v -1.550000 0.000000 -34.950001
v -1.650000 0.000000 -34.950001
v -1.550000 0.000000 -31.750000
v -1.650000 0.000000 -31.750000
v -1.550000 3.600000 -34.950001
v -1.650000 3.600000 -34.950001
v -1.550000 3.600000 -31.750000
v -1.650000 3.600000 -31.750000
v -1.550000 0.000000 -31.700001
v -1.650000 0.000000 -31.700001
v -1.550000 0.000000 -28.500000
v -1.650000 0.000000 -28.500000
v -1.550000 3.600000 -31.700001
v -1.650000 3.600000 -31.700001
v -1.550000 3.600000 -28.500000
v -1.650000 3.600000 -28.500000
v -10.750000 0.000000 -22.450001
v -10.750000 0.000000 -22.349998
v -7.550000 0.000000 -22.450001
v -7.550000 0.000000 -22.350000
v -10.750000 3.600000 -22.450001
v -10.750000 3.600000 -22.349998
v -7.550000 3.600000 -22.450001
v -7.550000 3.600000 -22.350000
v -12.299999 0.000000 -23.150000
v -12.299999 0.000000 -23.049999
v -11.100000 0.000000 -23.150000
v -11.100000 0.000000 -23.049999
v -12.299999 3.600000 -23.150000
v -12.299999 3.600000 -23.049999
v -11.100000 3.600000 -23.150000
v -11.100000 3.600000 -23.049999
v -11.050000 0.000000 -23.150000
v -11.050000 0.000000 -23.049999
v -7.850000 0.000000 -23.150000
v -7.850000 0.000000 -23.049999
v -11.050000 3.600000 -23.150000
v -11.050000 3.600000 -23.049999
v -7.850000 3.600000 -23.150000
v -7.850000 3.600000 -23.049999
vn -0.0000 -1.0000 -0.0000
vn -0.0000 1.0000 -0.0000
vn -1.0000 -0.0000 -0.0000
vn -0.0000 -0.0000 -1.0000
vn 1.0000 -0.0000 -0.0000
vn -0.0000 -0.0000 1.0000
vt 0.513889 0.062500
vt 0.486111 0.937500
vt 0.513889 0.937500
vt 0.062500 0.000000
vt 0.937500 1.000000
vt 0.937500 0.000000
vt 0.486111 0.000000
vt 0.513889 1.000000
vt 0.513889 0.000000
vt 0.062500 1.000000
vt 0.486111 1.000000
vt 0.486111 0.062500
s 0
f 3/1/1 2/2/1 1/3/1
f 6/2/2 7/1/2 5/3/2
f 4/4/3 6/5/3 2/6/3
f 2/7/4 5/8/4 1/9/4
f 1/6/5 7/10/5 3/4/5
f 3/9/6 8/11/6 4/7/6
f 11/1/1 10/2/1 9/3/1
f 14/2/2 15/1/2 13/3/2
f 12/4/3 14/5/3 10/6/3
f 10/7/4 13/8/4 9/9/4
f 9/6/5 15/10/5 11/4/5
f 11/9/6 16/11/6 12/7/6
f 19/1/1 18/2/1 17/3/1
f 22/2/2 23/1/2 21/3/2
f 20/4/6 22/5/6 18/6/6
f 18/7/3 21/8/3 17/9/3
f 17/6/4 23/10/4 19/4/4
f 19/9/5 24/11/5 20/7/5
f 27/1/1 26/2/1 25/3/1
f 30/2/2 31/1/2 29/3/2
f 28/4/6 30/5/6 26/6/6
f 26/7/3 29/8/3 25/9/3
f 25/6/4 31/10/4 27/4/4
f 27/9/5 32/11/5 28/7/5
f 35/1/1 34/2/1 33/3/1
f 38/2/2 39/1/2 37/3/2
f 36/4/6 38/5/6 34/6/6
f 34/7/3 37/8/3 33/9/3
f 33/6/4 39/10/4 35/4/4
f 35/9/5 40/11/5 36/7/5
f 43/1/1 42/2/1 41/3/1
f 46/2/2 47/1/2 45/3/2
f 44/4/3 46/5/3 42/6/3
f 42/7/4 45/8/4 41/9/4
f 41/6/5 47/10/5 43/4/5
f 43/9/6 48/11/6 44/7/6
f 51/1/1 50/2/1 49/3/1
f 54/2/2 55/1/2 53/3/2
f 52/4/3 54/5/3 50/6/3
f 50/7/4 53/8/4 49/9/4
f 49/6/5 55/10/5 51/4/5
f 51/9/6 56/11/6 52/7/6
f 59/1/1 58/2/1 57/3/1
f 62/2/2 63/1/2 61/3/2
f 60/4/3 62/5/3 58/6/3
f 58/7/4 61/8/4 57/9/4
f 57/6/5 63/10/5 59/4/5
f 59/9/6 64/11/6 60/7/6
f 67/1/1 66/2/1 65/3/1
f 70/2/2 71/1/2 69/3/2
f 68/4/3 70/5/3 66/6/3
f 66/7/4 69/8/4 65/9/4
f 65/6/5 71/10/5 67/4/5
f 67/9/6 72/11/6 68/7/6
f 75/1/1 74/2/1 73/3/1
f 78/2/2 79/1/2 77/3/2
f 76/4/6 78/5/6 74/6/6
f 74/7/3 77/8/3 73/9/3
f 73/6/4 79/10/4 75/4/4
f 75/9/5 80/11/5 76/7/5
f 83/1/1 82/2/1 81/3/1
f 86/2/2 87/1/2 85/3/2
f 84/4/6 86/5/6 82/6/6
f 82/7/3 85/8/3 81/9/3
f 81/6/4 87/10/4 83/4/4
f 83/9/5 88/11/5 84/7/5
f 91/1/1 90/2/1 89/3/1
f 94/2/2 95/1/2 93/3/2
f 92/4/3 94/5/3 90/6/3
f 90/7/4 93/8/4 89/9/4
f 89/6/5 95/10/5 91/4/5
f 91/9/6 96/11/6 92/7/6
f 99/1/1 98/2/1 97/3/1
f 102/2/2 103/1/2 101/3/2
f 100/4/3 102/5/3 98/6/3
f 98/7/4 101/8/4 97/9/4
f 97/6/5 103/10/5 99/4/5
f 99/9/6 104/11/6 100/7/6
f 107/1/1 106/2/1 105/3/1
f 110/2/2 111/1/2 109/3/2
f 108/4/3 110/5/3 106/6/3
f 106/7/4 109/8/4 105/9/4
f 105/6/5 111/10/5 107/4/5
f 107/9/6 112/11/6 108/7/6
f 115/1/1 114/2/1 113/3/1
f 118/2/2 119/1/2 117/3/2
f 116/4/3 118/5/3 114/6/3
f 114/7/4 117/8/4 113/9/4
f 113/6/5 119/10/5 115/4/5
f 115/9/6 120/11/6 116/7/6
f 123/1/1 122/2/1 121/3/1
f 126/2/2 127/1/2 125/3/2
f 124/4/3 126/5/3 122/6/3
f 122/7/4 125/8/4 121/9/4
f 121/6/5 127/10/5 123/4/5
f 123/9/6 128/11/6 124/7/6
f 131/1/1 130/2/1 129/3/1
f 134/2/2 135/1/2 133/3/2
f 132/4/3 134/5/3 130/6/3
f 130/7/4 133/8/4 129/9/4
f 129/6/5 135/10/5 131/4/5
f 131/9/6 136/11/6 132/7/6
f 139/1/1 138/2/1 137/3/1
f 142/2/2 143/1/2 141/3/2
f 140/4/6 142/5/6 138/6/6
f 138/7/3 141/8/3 137/9/3
f 137/6/4 143/10/4 139/4/4
f 139/9/5 144/11/5 140/7/5
f 147/1/1 146/2/1 145/3/1
f 150/2/2 151/1/2 149/3/2
f 148/4/6 150/5/6 146/6/6
f 146/7/3 149/8/3 145/9/3
f 145/6/4 151/10/4 147/4/4
f 147/9/5 152/11/5 148/7/5
f 155/1/1 154/2/1 153/3/1
f 158/2/2 159/1/2 157/3/2
f 156/4/6 158/5/6 154/6/6
f 154/7/3 157/8/3 153/9/3
f 153/6/4 159/10/4 155/4/4
f 155/9/5 160/11/5 156/7/5
f 3/1/1 4/12/1 2/2/1
f 6/2/2 8/12/2 7/1/2
f 4/4/3 8/10/3 6/5/3
f 2/7/4 6/11/4 5/8/4
f 1/6/5 5/5/5 7/10/5
f 3/9/6 7/8/6 8/11/6
f 11/1/1 12/12/1 10/2/1
f 14/2/2 16/12/2 15/1/2
f 12/4/3 16/10/3 14/5/3
f 10/7/4 14/11/4 13/8/4
f 9/6/5 13/5/5 15/10/5
f 11/9/6 15/8/6 16/11/6
f 19/1/1 20/12/1 18/2/1
f 22/2/2 24/12/2 23/1/2
f 20/4/6 24/10/6 22/5/6
f 18/7/3 22/11/3 21/8/3
f 17/6/4 21/5/4 23/10/4
f 19/9/5 23/8/5 24/11/5
f 27/1/1 28/12/1 26/2/1
f 30/2/2 32/12/2 31/1/2
f 28/4/6 32/10/6 30/5/6
f 26/7/3 30/11/3 29/8/3
f 25/6/4 29/5/4 31/10/4
f 27/9/5 31/8/5 32/11/5
f 35/1/1 36/12/1 34/2/1
f 38/2/2 40/12/2 39/1/2
f 36/4/6 40/10/6 38/5/6
f 34/7/3 38/11/3 37/8/3
f 33/6/4 37/5/4 39/10/4
f 35/9/5 39/8/5 40/11/5
f 43/1/1 44/12/1 42/2/1
f 46/2/2 48/12/2 47/1/2
f 44/4/3 48/10/3 46/5/3
f 42/7/4 46/11/4 45/8/4
f 41/6/5 45/5/5 47/10/5
f 43/9/6 47/8/6 48/11/6
f 51/1/1 52/12/1 50/2/1
f 54/2/2 56/12/2 55/1/2
f 52/4/3 56/10/3 54/5/3
f 50/7/4 54/11/4 53/8/4
f 49/6/5 53/5/5 55/10/5
f 51/9/6 55/8/6 56/11/6
f 59/1/1 60/12/1 58/2/1
f 62/2/2 64/12/2 63/1/2
f 60/4/3 64/10/3 62/5/3
f 58/7/4 62/11/4 61/8/4
f 57/6/5 61/5/5 63/10/5
f 59/9/6 63/8/6 64/11/6
f 67/1/1 68/12/1 66/2/1
f 70/2/2 72/12/2 71/1/2
f 68/4/3 72/10/3 70/5/3
f 66/7/4 70/11/4 69/8/4
f 65/6/5 69/5/5 71/10/5
f 67/9/6 71/8/6 72/11/6
f 75/1/1 76/12/1 74/2/1
f 78/2/2 80/12/2 79/1/2
f 76/4/6 80/10/6 78/5/6
f 74/7/3 78/11/3 77/8/3
f 73/6/4 77/5/4 79/10/4
f 75/9/5 79/8/5 80/11/5
f 83/1/1 84/12/1 82/2/1
f 86/2/2 88/12/2 87/1/2
f 84/4/6 88/10/6 86/5/6
f 82/7/3 86/11/3 85/8/3
f 81/6/4 85/5/4 87/10/4
f 83/9/5 87/8/5 88/11/5
f 91/1/1 92/12/1 90/2/1
f 94/2/2 96/12/2 95/1/2
f 92/4/3 96/10/3 94/5/3
f 90/7/4 94/11/4 93/8/4
f 89/6/5 93/5/5 95/10/5
f 91/9/6 95/8/6 96/11/6
f 99/1/1 100/12/1 98/2/1
f 102/2/2 104/12/2 103/1/2
f 100/4/3 104/10/3 102/5/3
f 98/7/4 102/11/4 101/8/4
f 97/6/5 101/5/5 103/10/5
f 99/9/6 103/8/6 104/11/6
f 107/1/1 108/12/1 106/2/1
f 110/2/2 112/12/2 111/1/2
f 108/4/3 112/10/3 110/5/3
f 106/7/4 110/11/4 109/8/4
f 105/6/5 109/5/5 111/10/5
f 107/9/6 111/8/6 112/11/6
f 115/1/1 116/12/1 114/2/1
f 118/2/2 120/12/2 119/1/2
f 116/4/3 120/10/3 118/5/3
f 114/7/4 118/11/4 117/8/4
f 113/6/5 117/5/5 119/10/5
f 115/9/6 119/8/6 120/11/6
f 123/1/1 124/12/1 122/2/1
f 126/2/2 128/12/2 127/1/2
f 124/4/3 128/10/3 126/5/3
f 122/7/4 126/11/4 125/8/4
f 121/6/5 125/5/5 127/10/5
f 123/9/6 127/8/6 128/11/6
f 131/1/1 132/12/1 130/2/1
f 134/2/2 136/12/2 135/1/2
f 132/4/3 136/10/3 134/5/3
f 130/7/4 134/11/4 133/8/4
f 129/6/5 133/5/5 135/10/5
f 131/9/6 135/8/6 136/11/6
f 139/1/1 140/12/1 138/2/1
f 142/2/2 144/12/2 143/1/2
f 140/4/6 144/10/6 142/5/6
f 138/7/3 142/11/3 141/8/3
f 137/6/4 141/5/4 143/10/4
f 139/9/5 143/8/5 144/11/5
f 147/1/1 148/12/1 146/2/1
f 150/2/2 152/12/2 151/1/2
f 148/4/6 152/10/6 150/5/6
f 146/7/3 150/11/3 149/8/3
f 145/6/4 149/5/4 151/10/4
f 147/9/5 151/8/5 152/11/5
f 155/1/1 156/12/1 154/2/1
f 158/2/2 160/12/2 159/1/2
f 156/4/6 160/10/6 158/5/6
f 154/7/3 158/11/3 157/8/3
f 153/6/4 157/5/4 159/10/4
f 155/9/5 159/8/5 160/11/5
