# Blender 4.2.0
# www.blender.org
o Icosphere.002
v 0.429907 -0.000000 -0.006686
v 0.397182 0.164518 -0.006686
v 0.303990 0.303990 -0.006686
v 0.164518 0.397182 -0.006686
v 0.000000 0.429907 -0.006686
v -0.164518 0.397182 -0.006686
v -0.303990 0.303990 -0.006686
v -0.397182 0.164518 -0.006686
v -0.429907 0.000000 -0.006686
v -0.397182 -0.164518 -0.006686
v -0.303990 -0.303990 -0.006686
v -0.164518 -0.397182 -0.006686
v -0.000000 -0.429907 -0.006686
v 0.164518 -0.397182 -0.006686
v 0.303990 -0.303990 -0.006686
v 0.397182 -0.164518 -0.006686
v 0.521980 -0.000000 -0.006686
v 0.482247 0.199753 -0.006686
v 0.369096 0.369095 -0.006686
v 0.199753 0.482246 -0.006686
v 0.000000 0.521980 -0.006686
v -0.199753 0.482246 -0.006686
v -0.369095 0.369096 -0.006686
v -0.482246 0.199753 -0.006686
v -0.521980 0.000000 -0.006686
v -0.482246 -0.199753 -0.006686
v -0.369096 -0.369095 -0.006686
v -0.199753 -0.482246 -0.006686
v 0.000000 -0.521980 -0.006686
v 0.199753 -0.482246 -0.006686
v 0.369095 -0.369095 -0.006686
v 0.482246 -0.199753 -0.006686
v 0.429907 -0.000000 0.006686
v 0.397182 0.164518 0.006686
v 0.303990 0.303990 0.006686
v 0.164518 0.397182 0.006686
v 0.000000 0.429907 0.006686
v -0.164518 0.397182 0.006686
v -0.303990 0.303990 0.006686
v -0.397182 0.164518 0.006686
v -0.429907 0.000000 0.006686
v -0.397182 -0.164518 0.006686
v -0.303990 -0.303990 0.006686
v -0.164518 -0.397182 0.006686
v -0.000000 -0.429907 0.006686
v 0.164518 -0.397182 0.006686
v 0.303990 -0.303990 0.006686
v 0.397182 -0.164518 0.006686
v 0.521980 0.000000 0.006686
v 0.482247 0.199753 0.006686
v 0.369096 0.369095 0.006686
v 0.199753 0.482246 0.006686
v 0.000000 0.521980 0.006686
v -0.199753 0.482246 0.006686
v -0.369095 0.369096 0.006686
v -0.482246 0.199753 0.006686
v -0.521980 0.000000 0.006686
v -0.482246 -0.199753 0.006686
v -0.369096 -0.369095 0.006686
v -0.199753 -0.482246 0.006686
v 0.000000 -0.521980 0.006686
v 0.199753 -0.482246 0.006686
v 0.369095 -0.369095 0.006686
v 0.482246 -0.199753 0.006686
v 0.009888 0.437670 0.000000
v 0.009888 -0.437671 0.000000
v 0.006992 0.437670 -0.006992
v 0.006992 -0.437671 -0.006992
v 0.000000 0.437670 -0.009888
v -0.000000 -0.437671 -0.009888
v -0.006992 0.437670 -0.006992
v -0.006992 -0.437671 -0.006992
v -0.009888 0.437670 0.000000
v -0.009888 -0.437671 0.000000
v -0.006992 0.437670 0.006992
v -0.006992 -0.437671 0.006992
v 0.000000 0.437670 0.009888
v -0.000000 -0.437671 0.009888
v 0.006992 0.437670 0.006992
v 0.006992 -0.437671 0.006992
v 0.009888 -0.345064 0.000000
v 0.009888 0.345064 0.000000
v 0.006992 0.345064 -0.006992
v 0.006992 -0.345064 -0.006992
v 0.000000 0.345064 -0.009888
v -0.000000 -0.345064 -0.009888
v -0.006992 0.345064 -0.006992
v -0.006992 -0.345064 -0.006992
v -0.009888 0.345064 0.000000
v -0.009888 -0.345064 0.000000
v -0.006992 0.345064 0.006992
v -0.006992 -0.345064 0.006992
v 0.000000 0.345064 0.009888
v 0.000000 -0.345064 0.009888
v 0.006992 0.345064 0.006992
v 0.006992 -0.345064 0.006992
vn -0.0000 -0.0000 -1.0000
vn -0.0000 -0.0000 1.0000
vn -0.3827 -0.9239 -0.0000
vn -0.0000 -1.0000 -0.0000
vn 0.9239 -0.3827 -0.0000
vn 0.7071 -0.7071 -0.0000
vn 0.7071 0.7071 -0.0000
vn 0.9239 0.3827 -0.0000
vn 0.3827 -0.9239 -0.0000
vn 1.0000 -0.0000 -0.0000
vn 0.3827 0.9239 -0.0000
vn -0.0000 1.0000 -0.0000
vn -0.3827 0.9239 -0.0000
vn -0.7071 0.7071 -0.0000
vn -0.9239 0.3827 -0.0000
vn -1.0000 -0.0000 -0.0000
vn -0.9239 -0.3827 -0.0000
vn -0.7071 -0.7071 -0.0000
vn 0.7071 -0.0000 0.7071
vn -0.7071 -0.0000 -0.7071
vn -0.7071 -0.0000 0.7071
vn 0.7071 -0.0000 -0.7071
vt 0.000000 0.000000
vt 0.125000 0.500000
vt 0.000000 0.552898
vt 0.000000 0.500000
vt 0.750000 0.552898
vt 0.625000 0.500000
vt 0.750000 0.500000
vt 0.625000 0.552898
vt 0.500000 0.500000
vt 0.500000 0.552898
vt 0.375000 0.500000
vt 0.250000 0.552898
vt 0.250000 0.500000
vt 0.010000 0.250000
vt 0.250000 0.010000
vt 0.490000 0.250000
vt 1.000000 0.552898
vt 0.875000 0.500000
vt 1.000000 0.500000
vt 0.919706 0.080294
vt 0.580294 0.080294
vt 0.580294 0.419706
vt 0.875000 0.552898
vt 0.250000 1.000000
vt 0.125000 0.947102
vt 0.250000 0.947102
vt 0.375000 1.000000
vt 0.375000 0.947102
vt 0.500000 1.000000
vt 0.500000 0.947102
vt 0.625000 1.000000
vt 0.625000 0.947102
vt 0.750000 1.000000
vt 0.750000 0.947102
vt 0.875000 1.000000
vt 0.875000 0.947102
vt 1.000000 1.000000
vt 1.000000 0.947102
vt 0.000000 1.000000
vt 0.000000 0.947102
vt 0.125000 0.552898
vt 0.375000 0.552898
vt 0.419706 0.419706
vt 0.250000 0.490000
vt 0.080294 0.419706
vt 0.080294 0.080294
vt 0.419706 0.080294
vt 0.750000 0.490000
vt 0.919706 0.419706
vt 0.990000 0.250000
vt 0.750000 0.010000
vt 0.510000 0.250000
vt 0.125000 1.000000
s 1
f 16/1/1 31/1/1 15/1/1
f 25/1/1 8/1/1 9/1/1
f 18/1/1 1/1/1 2/1/1
f 1/1/1 32/1/1 16/1/1
f 26/1/1 9/1/1 10/1/1
f 19/1/1 2/1/1 3/1/1
f 27/1/1 10/1/1 11/1/1
f 20/1/1 3/1/1 4/1/1
f 28/1/1 11/1/1 12/1/1
f 5/1/1 20/1/1 4/1/1
f 13/1/1 28/1/1 12/1/1
f 22/1/1 5/1/1 6/1/1
f 30/1/1 13/1/1 14/1/1
f 23/1/1 6/1/1 7/1/1
f 31/1/1 14/1/1 15/1/1
f 24/1/1 7/1/1 8/1/1
f 48/1/2 63/1/2 64/1/2
f 40/1/2 57/1/2 41/1/2
f 33/1/2 50/1/2 34/1/2
f 33/1/2 64/1/2 49/1/2
f 41/1/2 58/1/2 42/1/2
f 34/1/2 51/1/2 35/1/2
f 42/1/2 59/1/2 43/1/2
f 35/1/2 52/1/2 36/1/2
f 43/1/2 60/1/2 44/1/2
f 37/1/2 52/1/2 53/1/2
f 45/1/2 60/1/2 61/1/2
f 37/1/2 54/1/2 38/1/2
f 45/1/2 62/1/2 46/1/2
f 38/1/2 55/1/2 39/1/2
f 46/1/2 63/1/2 47/1/2
f 39/1/2 56/1/2 40/1/2
f 4/1/3 37/1/4 5/1/4
f 32/1/5 63/1/6 31/1/6
f 19/1/7 50/1/8 18/1/8
f 5/1/4 38/1/9 6/1/9
f 17/1/10 64/1/5 32/1/5
f 20/1/11 51/1/7 19/1/7
f 6/1/9 39/1/6 7/1/6
f 21/1/12 52/1/11 20/1/11
f 7/1/6 40/1/5 8/1/5
f 22/1/13 53/1/12 21/1/12
f 8/1/5 41/1/10 9/1/10
f 23/1/14 54/1/13 22/1/13
f 9/1/10 42/1/8 10/1/8
f 24/1/15 55/1/14 23/1/14
f 10/1/8 43/1/7 11/1/7
f 25/1/16 56/1/15 24/1/15
f 11/1/7 44/1/11 12/1/11
f 26/1/17 57/1/16 25/1/16
f 12/1/11 45/1/12 13/1/12
f 27/1/18 58/1/17 26/1/17
f 14/1/13 45/1/12 46/1/13
f 28/1/3 59/1/18 27/1/18
f 14/1/13 47/1/14 15/1/14
f 2/1/17 33/1/16 34/1/17
f 29/1/4 60/1/3 28/1/3
f 15/1/14 48/1/15 16/1/15
f 2/1/17 35/1/18 3/1/18
f 30/1/9 61/1/4 29/1/4
f 16/1/15 33/1/16 1/1/16
f 4/1/3 35/1/18 36/1/3
f 31/1/6 62/1/9 30/1/9
f 18/1/8 49/1/10 17/1/10
f 79/2/19 82/3/10 65/4/10
f 85/5/1 71/6/20 69/7/1
f 87/8/20 73/9/16 71/6/20
f 89/10/16 75/11/21 73/9/16
f 75/11/21 93/12/2 77/13/2
f 93/12/2 79/2/19 77/13/2
f 78/14/4 74/15/4 70/16/4
f 82/17/10 67/18/22 65/19/10
f 71/20/12 75/21/12 79/22/12
f 83/23/22 69/7/1 67/18/22
f 78/24/2 96/25/19 94/26/2
f 76/27/21 94/26/2 92/28/21
f 74/29/16 92/28/21 90/30/16
f 72/31/20 90/30/16 88/32/20
f 70/33/1 88/32/20 86/34/1
f 68/35/22 86/34/1 84/36/22
f 66/37/10 84/36/22 81/38/10
f 96/25/19 66/39/10 81/40/10
f 16/1/1 32/1/1 31/1/1
f 25/1/1 24/1/1 8/1/1
f 18/1/1 17/1/1 1/1/1
f 1/1/1 17/1/1 32/1/1
f 26/1/1 25/1/1 9/1/1
f 19/1/1 18/1/1 2/1/1
f 27/1/1 26/1/1 10/1/1
f 20/1/1 19/1/1 3/1/1
f 28/1/1 27/1/1 11/1/1
f 5/1/1 21/1/1 20/1/1
f 13/1/1 29/1/1 28/1/1
f 22/1/1 21/1/1 5/1/1
f 30/1/1 29/1/1 13/1/1
f 23/1/1 22/1/1 6/1/1
f 31/1/1 30/1/1 14/1/1
f 24/1/1 23/1/1 7/1/1
f 48/1/2 47/1/2 63/1/2
f 40/1/2 56/1/2 57/1/2
f 33/1/2 49/1/2 50/1/2
f 33/1/2 48/1/2 64/1/2
f 41/1/2 57/1/2 58/1/2
f 34/1/2 50/1/2 51/1/2
f 42/1/2 58/1/2 59/1/2
f 35/1/2 51/1/2 52/1/2
f 43/1/2 59/1/2 60/1/2
f 37/1/2 36/1/2 52/1/2
f 45/1/2 44/1/2 60/1/2
f 37/1/2 53/1/2 54/1/2
f 45/1/2 61/1/2 62/1/2
f 38/1/2 54/1/2 55/1/2
f 46/1/2 62/1/2 63/1/2
f 39/1/2 55/1/2 56/1/2
f 4/1/3 36/1/3 37/1/4
f 32/1/5 64/1/5 63/1/6
f 19/1/7 51/1/7 50/1/8
f 5/1/4 37/1/4 38/1/9
f 17/1/10 49/1/10 64/1/5
f 20/1/11 52/1/11 51/1/7
f 6/1/9 38/1/9 39/1/6
f 21/1/12 53/1/12 52/1/11
f 7/1/6 39/1/6 40/1/5
f 22/1/13 54/1/13 53/1/12
f 8/1/5 40/1/5 41/1/10
f 23/1/14 55/1/14 54/1/13
f 9/1/10 41/1/10 42/1/8
f 24/1/15 56/1/15 55/1/14
f 10/1/8 42/1/8 43/1/7
f 25/1/16 57/1/16 56/1/15
f 11/1/7 43/1/7 44/1/11
f 26/1/17 58/1/17 57/1/16
f 12/1/11 44/1/11 45/1/12
f 27/1/18 59/1/18 58/1/17
f 14/1/13 13/1/12 45/1/12
f 28/1/3 60/1/3 59/1/18
f 14/1/13 46/1/13 47/1/14
f 2/1/17 1/1/16 33/1/16
f 29/1/4 61/1/4 60/1/3
f 15/1/14 47/1/14 48/1/15
f 2/1/17 34/1/17 35/1/18
f 30/1/9 62/1/9 61/1/4
f 16/1/15 48/1/15 33/1/16
f 4/1/3 3/1/18 35/1/18
f 31/1/6 63/1/6 62/1/9
f 18/1/8 50/1/8 49/1/10
f 79/2/19 95/41/19 82/3/10
f 85/5/1 87/8/20 71/6/20
f 87/8/20 89/10/16 73/9/16
f 89/10/16 91/42/21 75/11/21
f 75/11/21 91/42/21 93/12/2
f 93/12/2 95/41/19 79/2/19
f 70/16/4 68/43/4 66/44/4
f 66/44/4 80/45/4 78/14/4
f 78/14/4 76/46/4 74/15/4
f 74/15/4 72/47/4 70/16/4
f 70/16/4 66/44/4 78/14/4
f 82/17/10 83/23/22 67/18/22
f 79/22/12 65/48/12 67/49/12
f 67/49/12 69/50/12 71/20/12
f 71/20/12 73/51/12 75/21/12
f 75/21/12 77/52/12 79/22/12
f 79/22/12 67/49/12 71/20/12
f 83/23/22 85/5/1 69/7/1
f 78/24/2 80/53/19 96/25/19
f 76/27/21 78/24/2 94/26/2
f 74/29/16 76/27/21 92/28/21
f 72/31/20 74/29/16 90/30/16
f 70/33/1 72/31/20 88/32/20
f 68/35/22 70/33/1 86/34/1
f 66/37/10 68/35/22 84/36/22
f 96/25/19 80/53/19 66/39/10
