# Blender 4.2.0
# www.blender.org
o Icosphere.003
v -0.000001 0.202849 0.040825
v -0.000001 0.209907 0.040825
v -0.020413 0.202849 0.035355
v -0.020413 0.209907 0.035355
v -0.035356 0.202849 0.020412
v -0.035356 0.209907 0.020412
v -0.040825 0.202849 0.000000
v -0.040825 0.209907 0.000000
v -0.035356 0.202849 -0.020412
v -0.035356 0.209907 -0.020412
v -0.020413 0.202849 -0.035355
v -0.020413 0.209907 -0.035355
v -0.000001 0.202849 -0.040825
v -0.000001 0.209907 -0.040825
v 0.020411 0.202849 -0.035355
v 0.020411 0.209907 -0.035355
v 0.035354 0.202849 -0.020412
v 0.035354 0.209907 -0.020412
v 0.040824 0.202849 -0.000000
v 0.040824 0.209907 -0.000000
v 0.035354 0.202849 0.020412
v 0.035354 0.209907 0.020412
v 0.020411 0.202849 0.035355
v 0.020411 0.209907 0.035355
v 0.046305 0.209907 -0.009342
v 0.046305 0.202849 -0.009342
v 0.046305 0.202849 -0.000000
v 0.046305 0.209907 -0.000000
v 0.046305 0.202849 0.009342
v 0.046305 0.209907 0.009342
v 1.753398 0.209907 -0.009343
v 1.753398 0.202849 -0.009343
v 1.753398 0.202849 -0.000000
v 1.753398 0.209907 -0.000000
v 1.753398 0.202849 0.009342
v 1.753398 0.209907 0.009342
v 1.791554 0.202849 -0.000000
v 1.791554 0.209907 -0.000000
v 1.786529 0.202849 -0.014556
v 1.757504 0.202849 -0.014556
v 1.775929 0.202849 -0.020824
v 1.766055 0.202849 -0.020824
v 1.757360 0.202849 -0.000000
v 1.786673 0.202849 -0.000000
v 1.766448 0.202849 -0.000000
v 1.775536 0.202849 -0.000000
v 1.786529 0.202849 0.014555
v 1.757504 0.202849 0.014555
v 1.775929 0.202849 0.020823
v 1.766055 0.202849 0.020823
v 1.757504 0.209907 0.014555
v 1.786529 0.209907 0.014555
v 1.766055 0.209907 0.020823
v 1.775929 0.209907 0.020823
v 1.786673 0.209907 -0.000000
v 1.757360 0.209907 -0.000000
v 1.775536 0.209907 -0.000000
v 1.766448 0.209907 -0.000000
v 1.757504 0.209907 -0.014556
v 1.786529 0.209907 -0.014556
v 1.766055 0.209907 -0.020824
v 1.775929 0.209907 -0.020824
v 1.770992 0.197065 0.008669
v 1.770992 0.964831 0.008669
v 1.764861 0.197065 0.006129
v 1.764861 0.964831 0.006129
v 1.762321 0.197065 -0.000003
v 1.762321 0.964831 -0.000003
v 1.764861 0.197065 -0.006134
v 1.764861 0.964831 -0.006134
v 1.770992 0.197065 -0.008674
v 1.770992 0.964831 -0.008674
v 1.777123 0.197065 -0.006134
v 1.777123 0.964831 -0.006134
v 1.779663 0.197065 -0.000003
v 1.779663 0.964831 -0.000003
v 1.777123 0.197065 0.006129
v 1.777123 0.964831 0.006129
v 1.831804 1.086429 -0.044170
v 1.808581 1.039983 0.115650
v 1.771004 0.964830 0.142951
v 1.855027 0.964830 0.115651
v 1.695852 1.086429 0.000003
v 1.831804 1.086429 0.044176
v 1.747782 1.086429 0.071476
v 1.892603 1.039983 0.000003
v 1.672629 1.039983 0.071477
v 1.747782 1.086429 -0.071471
v 1.686981 0.964830 0.115651
v 1.672629 1.039983 -0.071471
v 1.808581 1.039983 -0.115644
v 1.855027 0.964830 -0.115645
v 1.906957 0.964830 0.044176
v 1.686981 0.964830 -0.115645
v 1.906957 0.964830 -0.044170
v 1.649405 0.889676 0.000003
v 1.635052 0.964830 0.044176
v 1.771004 0.964830 -0.142946
v 1.710205 0.843230 0.044176
v 1.733428 0.889676 0.115650
v 1.635052 0.964830 -0.044170
v 1.710205 0.843230 -0.044170
v 1.794227 0.843230 0.071476
v 1.869380 0.889676 0.071477
v 1.794227 0.843230 -0.071471
v 1.846157 0.843230 0.000003
v 1.869380 0.889676 -0.071471
v 1.733428 0.889676 -0.115644
v 1.771004 1.107778 0.000003
v 1.643147 1.028758 0.000003
v 1.731495 1.028759 0.121602
v 1.874443 1.028759 0.075155
v 1.874443 1.028759 -0.075149
v 1.731495 1.028759 -0.121596
v 1.667566 0.900900 0.075155
v 1.810513 0.900900 0.121602
v 1.898861 0.900901 0.000003
v 1.810513 0.900900 -0.121596
v 1.667566 0.900900 -0.075149
v 1.771004 0.821881 0.000003
vn -0.0000 -0.0000 1.0000
vn -0.5000 -0.0000 0.8660
vn -0.8660 -0.0000 0.5000
vn -1.0000 -0.0000 -0.0000
vn -0.8660 -0.0000 -0.5000
vn -0.5000 -0.0000 -0.8660
vn -0.0000 -0.0000 -1.0000
vn 0.5000 -0.0000 -0.8660
vn 0.7090 -0.0000 -0.7052
vn -0.0000 -1.0000 -0.0000
vn -0.0000 1.0000 -0.0000
vn 0.7090 -0.0000 0.7052
vn 0.5000 -0.0000 0.8660
vn 0.3852 -0.0000 0.9228
vn 0.3852 -0.0000 -0.9228
vn -0.4366 -0.0000 0.8996
vn -0.6948 -0.0000 0.7192
vn -0.4366 -0.0000 0.8997
vn -0.4366 -0.0000 -0.8996
vn -0.6948 -0.0000 -0.7192
vn -0.4366 -0.0000 -0.8997
vn 0.7746 -0.0000 0.6324
vn 1.0000 -0.0000 -0.0000
vn 0.7747 -0.0000 0.6324
vn 0.7746 -0.0000 -0.6324
vn 0.7747 -0.0000 -0.6324
vn 0.2638 -0.0000 -0.9646
vn -0.3110 -0.0000 -0.9504
vn 0.2638 -0.0000 0.9646
vn -0.3110 -0.0000 0.9504
vn -0.7071 -0.0000 0.7071
vn -0.7071 -0.0000 -0.7071
vn 0.7071 -0.0000 -0.7071
vn 0.7071 -0.0000 0.7071
vn -0.4253 -0.8507 -0.3090
vn -0.7236 -0.4472 -0.5257
vn -0.2629 -0.5257 -0.8090
vn 0.1625 -0.8507 -0.5000
vn 0.2764 -0.4472 -0.8506
vn 0.6882 -0.5257 -0.5000
vn -0.4253 -0.8507 0.3090
vn 0.5257 -0.8507 -0.0000
vn 0.1625 -0.8507 0.5000
vn 0.6882 -0.5257 0.5000
vn 0.2764 -0.4472 0.8506
vn 0.5878 -0.0000 0.8090
vn 0.9511 -0.0000 0.3090
vn -0.5878 -0.0000 -0.8090
vn -0.2629 -0.5257 0.8090
vn 0.8944 -0.4472 -0.0000
vn 0.7236 0.4472 0.5257
vn -0.5878 -0.0000 0.8090
vn -0.6882 0.5257 -0.5000
vn -0.2764 0.4472 -0.8506
vn 0.9511 -0.0000 -0.3090
vn 0.8506 0.5257 -0.0000
vn -0.8944 0.4472 -0.0000
vn -0.5257 0.8507 -0.0000
vn -0.9511 -0.0000 0.3090
vn -0.6882 0.5257 0.5000
vn -0.1625 0.8507 0.5000
vn 0.4253 0.8507 0.3090
vn 0.4253 0.8507 -0.3090
vn 0.2629 0.5257 0.8090
vn -0.8506 -0.5257 -0.0000
vn -0.1625 0.8507 -0.5000
vn 0.2629 0.5257 -0.8090
vn 0.7236 0.4472 -0.5257
vn -0.2764 0.4472 0.8506
vn -0.9511 -0.0000 -0.3090
vn 0.5878 -0.0000 -0.8090
vn -0.7236 -0.4472 0.5257
vt 1.000000 1.000000
vt 0.916667 0.500000
vt 1.000000 0.500000
vt 0.916667 1.000000
vt 0.833333 0.500000
vt 0.833333 1.000000
vt 0.750000 0.500000
vt 0.750000 1.000000
vt 0.666667 0.500000
vt 0.666667 1.000000
vt 0.583333 0.500000
vt 0.583333 1.000000
vt 0.500000 0.500000
vt 0.500000 1.000000
vt 0.416667 0.500000
vt 0.416667 1.000000
vt 0.333333 0.500000
vt 0.510000 0.250000
vt 0.542154 0.130000
vt 0.010000 0.250000
vt 0.042154 0.370000
vt 0.250000 0.010000
vt 0.457846 0.370000
vt 0.166667 1.000000
vt 0.083333 0.500000
vt 0.166667 0.500000
vt 0.083333 1.000000
vt 0.000000 0.500000
vt 0.990000 0.250000
vt 0.630000 0.042154
vt 0.630000 0.457846
vt 0.042154 0.130000
vt 0.542154 0.370000
vt 0.333333 1.000000
vt 0.250000 1.000000
vt 0.250000 0.500000
vt 0.037036 0.350900
vt 0.037036 0.350900
vt 0.037036 0.149100
vt 0.537036 0.350900
vt 0.537036 0.149100
vt 0.537036 0.149100
vt 0.875000 0.500000
vt 0.875000 1.000000
vt 0.750000 0.500000
vt 0.750000 1.000000
vt 0.625000 0.500000
vt 0.625000 1.000000
vt 0.500000 0.500000
vt 0.500000 1.000000
vt 0.375000 0.500000
vt 0.375000 1.000000
vt 0.250000 0.500000
vt 0.490000 0.250000
vt 0.250000 1.000000
vt 0.125000 0.500000
vt 0.125000 1.000000
vt 0.000000 0.500000
vt 0.919706 0.080294
vt 0.580294 0.080294
vt 0.580294 0.419706
vt 0.227273 0.078731
vt 0.272728 0.157461
vt 0.181819 0.157461
vt 0.954545 0.078731
vt 1.000000 0.157461
vt 0.909091 0.157461
vt 0.136365 0.078731
vt 0.090910 0.157461
vt 0.318182 0.078731
vt 0.363637 0.000000
vt 0.409092 0.078731
vt 0.863636 0.078731
vt 0.681818 0.078731
vt 0.727273 0.157461
vt 0.636364 0.157461
vt 0.681818 0.236191
vt 0.772727 0.236191
vt 0.227273 0.236191
vt 0.545455 0.157461
vt 0.590909 0.236191
vt 0.818182 0.157461
vt 0.590909 0.078731
vt 0.727273 0.314921
vt 0.136365 0.236191
vt 0.500000 0.236191
vt 0.272728 0.314921
vt 0.181819 0.314921
vt 0.863636 0.236191
vt 0.818182 0.314921
vt 0.363637 0.314921
vt 0.318182 0.393651
vt 0.409092 0.236191
vt 0.454546 0.314921
vt 0.409092 0.393651
vt 0.500000 0.393651
vt 0.772727 0.393651
vt 0.863636 0.393651
vt 0.818182 0.472382
vt 0.181819 0.000000
vt 0.636364 0.314921
vt 0.590909 0.393651
vt 0.681818 0.393651
vt 0.636364 0.472382
vt 0.363637 0.157461
vt 0.227273 0.393651
vt 0.909091 0.000000
vt 0.727273 0.000000
vt 0.772727 0.078731
vt 0.090910 0.314921
vt 0.545455 0.000000
vt 0.500000 0.078731
vt 0.909091 0.314921
vt 0.545455 0.314921
vt 0.318182 0.236191
vt 0.272728 0.472382
vt 0.045455 0.393651
vt 0.136365 0.393651
vt 0.090910 0.472382
vt 0.045455 0.236191
vt 0.454546 0.157461
vt 0.454546 0.472382
vt 0.954545 0.236191
vt 0.000000 0.314921
vt 0.370000 0.457846
vt 0.250000 0.490000
vt 0.130000 0.457846
vt 0.130000 0.042154
vt 0.370000 0.042154
vt 0.457846 0.130000
vt 0.000000 1.000000
vt 0.750000 0.490000
vt 0.870000 0.457846
vt 0.957846 0.370000
vt 0.957846 0.130000
vt 0.870000 0.042154
vt 0.750000 0.010000
vt 0.037036 0.149100
vt 0.537036 0.350900
vt 0.419706 0.419706
vt 0.080294 0.419706
vt 0.080294 0.080294
vt 0.419706 0.080294
vt 0.000000 1.000000
vt 0.919706 0.419706
s 1
f 2/1/1 3/2/2 1/3/1
f 4/4/2 5/5/3 3/2/2
f 6/6/3 7/7/4 5/5/3
f 8/8/4 9/9/5 7/7/4
f 10/10/5 11/11/6 9/9/5
f 12/12/6 13/13/7 11/11/6
f 14/14/7 15/15/8 13/13/7
f 16/16/8 17/17/9 15/15/8
f 19/18/10 26/19/10 27/18/10
f 20/20/11 30/21/11 28/20/11
f 22/21/11 14/22/11 6/23/11
f 22/24/12 23/25/13 21/26/12
f 24/27/13 1/28/1 23/25/13
f 7/29/10 15/30/10 23/31/10
f 28/20/11 31/32/11 25/32/11
f 27/18/10 35/33/10 29/33/10
f 21/26/12 30/24/14 22/24/12
f 19/18/10 29/33/10 21/33/10
f 20/20/11 25/32/11 18/32/11
f 18/34/9 26/17/15 17/17/9
f 35/26/16 51/24/17 36/24/18
f 31/34/19 40/17/20 32/17/21
f 25/34/15 32/17/21 26/17/15
f 30/21/11 34/20/11 28/20/11
f 26/19/10 33/18/10 27/18/10
f 29/26/14 36/24/18 30/24/14
f 47/26/22 38/35/23 52/24/24
f 31/32/11 56/20/11 59/32/11
f 32/19/10 43/18/10 33/18/10
f 60/32/11 55/20/11 38/20/11
f 55/20/11 52/21/11 38/20/11
f 35/33/10 43/18/10 48/33/10
f 60/34/25 37/36/23 39/17/26
f 47/33/10 44/18/10 37/18/10
f 44/18/10 39/19/10 37/18/10
f 36/21/11 56/20/11 34/20/11
f 52/21/11 57/20/11 54/37/11
f 57/20/11 53/38/11 54/37/11
f 58/20/11 51/21/11 53/38/11
f 39/17/26 62/34/27 60/34/25
f 41/17/27 61/34/28 62/34/27
f 42/17/28 59/34/20 61/34/28
f 60/32/11 57/20/11 55/20/11
f 57/20/11 61/39/11 58/20/11
f 58/20/11 59/32/11 56/20/11
f 47/33/10 46/18/10 44/18/10
f 46/18/10 50/40/10 45/18/10
f 45/18/10 48/33/10 43/18/10
f 39/19/10 46/18/10 41/41/10
f 46/18/10 42/42/10 41/41/10
f 45/18/10 40/19/10 42/42/10
f 52/24/24 49/26/29 47/26/22
f 54/24/29 50/26/30 49/26/29
f 53/24/30 48/26/17 50/26/30
f 64/1/1 65/43/31 63/3/1
f 66/44/31 67/45/4 65/43/31
f 68/46/4 69/47/32 67/45/4
f 70/48/32 71/49/7 69/47/32
f 72/50/7 73/51/33 71/49/7
f 74/52/33 75/53/23 73/51/33
f 76/20/11 72/22/11 68/54/11
f 76/55/23 77/56/34 75/53/23
f 78/57/34 63/58/1 77/56/34
f 69/59/10 73/60/10 77/61/10
f 102/62/35 119/63/36 108/64/37
f 105/65/38 118/66/39 107/67/40
f 105/68/38 102/62/35 108/64/37
f 105/68/38 108/64/37 118/69/39
f 102/70/35 120/71/10 99/72/41
f 106/73/42 105/65/38 107/67/40
f 103/74/43 104/75/44 116/76/45
f 82/77/46 104/75/44 93/78/47
f 108/64/37 119/63/36 94/79/48
f 100/80/49 116/76/45 81/81/1
f 106/73/42 107/67/40 117/82/50
f 103/83/43 116/76/45 100/80/49
f 82/77/46 93/78/47 112/84/51
f 98/85/7 108/64/37 94/79/48
f 89/86/52 100/80/49 81/81/1
f 94/79/48 90/87/53 114/88/54
f 93/78/47 95/89/55 86/90/56
f 90/87/53 110/91/57 83/92/58
f 97/93/59 87/94/60 110/91/57
f 83/95/58 87/94/60 85/96/61
f 84/97/62 79/98/63 109/99/11
f 120/100/10 102/62/35 105/68/38
f 82/77/46 112/84/51 80/101/64
f 85/102/61 84/103/62 109/104/11
f 119/63/36 102/70/35 96/105/65
f 88/106/66 90/87/53 83/92/58
f 85/102/61 80/101/64 84/103/62
f 120/107/10 105/65/38 106/73/42
f 93/78/47 86/90/56 112/84/51
f 80/101/64 112/84/51 84/103/62
f 120/108/10 106/109/42 103/74/43
f 98/85/7 114/88/54 91/110/67
f 84/97/62 86/90/56 79/98/63
f 120/111/10 103/83/43 99/112/41
f 86/90/56 113/113/68 79/98/63
f 87/94/60 111/114/69 85/96/61
f 116/76/45 104/75/44 82/77/46
f 81/81/1 82/77/46 80/101/64
f 97/93/59 89/86/52 87/94/60
f 119/63/36 96/105/65 101/115/70
f 88/106/66 83/92/58 109/116/11
f 79/117/63 88/118/66 109/119/11
f 118/69/39 108/64/37 98/85/7
f 91/110/67 114/88/54 88/118/66
f 95/89/55 113/113/68 86/90/56
f 117/82/50 107/67/40 95/89/55
f 92/120/71 98/85/7 91/110/67
f 94/79/48 101/115/70 90/87/53
f 115/121/72 100/80/49 89/86/52
f 83/95/58 85/96/61 109/122/11
f 89/86/52 111/114/69 87/94/60
f 119/63/36 101/115/70 94/79/48
f 107/67/40 118/66/39 92/123/71
f 79/117/63 91/110/67 88/118/66
f 118/69/39 98/85/7 92/120/71
f 101/115/70 96/105/65 97/93/59
f 92/120/71 91/110/67 113/124/68
f 117/82/50 95/89/55 93/78/47
f 99/112/41 100/80/49 115/121/72
f 101/115/70 110/91/57 90/87/53
f 113/124/68 91/110/67 79/117/63
f 106/109/42 117/82/50 104/75/44
f 81/81/1 80/101/64 111/114/69
f 114/88/54 90/87/53 88/106/66
f 89/86/52 81/81/1 111/114/69
f 95/89/55 92/123/71 113/113/68
f 115/121/72 89/86/52 97/93/59
f 98/85/7 94/79/48 114/88/54
f 101/115/70 97/93/59 110/91/57
f 116/76/45 82/77/46 81/81/1
f 96/105/65 115/121/72 97/93/59
f 104/75/44 117/82/50 93/78/47
f 110/91/57 87/94/60 83/95/58
f 99/112/41 103/83/43 100/80/49
f 95/89/55 107/67/40 92/123/71
f 112/84/51 86/90/56 84/97/62
f 96/105/65 102/70/35 99/72/41
f 103/74/43 106/109/42 104/75/44
f 111/114/69 80/101/64 85/102/61
f 96/105/65 99/72/41 115/121/72
f 2/1/1 4/4/2 3/2/2
f 4/4/2 6/6/3 5/5/3
f 6/6/3 8/8/4 7/7/4
f 8/8/4 10/10/5 9/9/5
f 10/10/5 12/12/6 11/11/6
f 12/12/6 14/14/7 13/13/7
f 14/14/7 16/16/8 15/15/8
f 16/16/8 18/34/9 17/17/9
f 19/18/10 17/19/10 26/19/10
f 20/20/11 22/21/11 30/21/11
f 6/23/11 4/125/11 2/126/11
f 2/126/11 24/127/11 22/21/11
f 22/21/11 20/20/11 18/32/11
f 18/32/11 16/128/11 14/22/11
f 14/22/11 12/129/11 10/130/11
f 10/130/11 8/54/11 6/23/11
f 6/23/11 2/126/11 22/21/11
f 22/21/11 18/32/11 14/22/11
f 14/22/11 10/130/11 6/23/11
f 22/24/12 24/27/13 23/25/13
f 24/27/13 2/131/1 1/28/1
f 23/31/10 1/132/10 3/133/10
f 3/133/10 5/134/10 7/29/10
f 7/29/10 9/135/10 11/136/10
f 11/136/10 13/137/10 15/30/10
f 15/30/10 17/19/10 19/18/10
f 19/18/10 21/33/10 23/31/10
f 23/31/10 3/133/10 7/29/10
f 7/29/10 11/136/10 15/30/10
f 15/30/10 19/18/10 23/31/10
f 28/20/11 34/20/11 31/32/11
f 27/18/10 33/18/10 35/33/10
f 21/26/12 29/26/14 30/24/14
f 19/18/10 27/18/10 29/33/10
f 20/20/11 28/20/11 25/32/11
f 18/34/9 25/34/15 26/17/15
f 35/26/16 48/26/17 51/24/17
f 31/34/19 59/34/20 40/17/20
f 25/34/15 31/34/19 32/17/21
f 30/21/11 36/21/11 34/20/11
f 26/19/10 32/19/10 33/18/10
f 29/26/14 35/26/16 36/24/18
f 47/26/22 37/36/23 38/35/23
f 31/32/11 34/20/11 56/20/11
f 32/19/10 40/19/10 43/18/10
f 35/33/10 33/18/10 43/18/10
f 60/34/25 38/35/23 37/36/23
f 36/21/11 51/21/11 56/20/11
f 52/21/11 55/20/11 57/20/11
f 57/20/11 58/20/11 53/38/11
f 58/20/11 56/20/11 51/21/11
f 39/17/26 41/17/27 62/34/27
f 41/17/27 42/17/28 61/34/28
f 42/17/28 40/17/20 59/34/20
f 60/32/11 62/138/11 57/20/11
f 57/20/11 62/138/11 61/39/11
f 58/20/11 61/39/11 59/32/11
f 47/33/10 49/139/10 46/18/10
f 46/18/10 49/139/10 50/40/10
f 45/18/10 50/40/10 48/33/10
f 39/19/10 44/18/10 46/18/10
f 46/18/10 45/18/10 42/42/10
f 45/18/10 43/18/10 40/19/10
f 52/24/24 54/24/29 49/26/29
f 54/24/29 53/24/30 50/26/30
f 53/24/30 51/24/17 48/26/17
f 64/1/1 66/44/31 65/43/31
f 66/44/31 68/46/4 67/45/4
f 68/46/4 70/48/32 69/47/32
f 70/48/32 72/50/7 71/49/7
f 72/50/7 74/52/33 73/51/33
f 74/52/33 76/55/23 75/53/23
f 68/54/11 66/140/11 64/126/11
f 64/126/11 78/141/11 76/20/11
f 76/20/11 74/142/11 72/22/11
f 72/22/11 70/143/11 68/54/11
f 68/54/11 64/126/11 76/20/11
f 76/55/23 78/57/34 77/56/34
f 78/57/34 64/144/1 63/58/1
f 77/61/10 63/132/10 65/145/10
f 65/145/10 67/29/10 69/59/10
f 69/59/10 71/137/10 73/60/10
f 73/60/10 75/18/10 77/61/10
f 77/61/10 65/145/10 69/59/10
